<?xml version="1.0" standalone="no"?>
<!DOCTYPE svg PUBLIC "-//W3C//DTD SVG 20010904//EN"
 "http://www.w3.org/TR/2001/REC-SVG-20010904/DTD/svg10.dtd">
<svg version="1.0" xmlns="http://www.w3.org/2000/svg"
 width="928.000000pt" height="928.000000pt" viewBox="0 0 928.000000 928.000000"
 preserveAspectRatio="xMidYMid meet">
<metadata>
Created by potrace 1.14, written by Peter Selinger 2001-2017
</metadata>
<g transform="translate(0.000000,928.000000) scale(0.100000,-0.100000)"
fill="#000000" stroke="none">
<path d="M4298 9115 c-2 -2 -39 -6 -83 -9 -44 -3 -105 -8 -135 -12 -30 -3 -71
-7 -90 -9 -19 -2 -35 -4 -35 -5 0 -1 -16 -3 -35 -5 -92 -10 -143 -18 -196 -30
-12 -3 -39 -7 -60 -11 -21 -3 -43 -7 -49 -8 -5 -1 -16 -5 -23 -10 -7 -4 -16
-6 -18 -3 -3 2 -22 1 -42 -4 -20 -6 -48 -12 -62 -15 -14 -2 -38 -9 -55 -14
-16 -5 -41 -11 -55 -14 -31 -6 -170 -44 -190 -53 -8 -3 -23 -8 -32 -9 -25 -5
-198 -66 -308 -108 -52 -20 -99 -38 -105 -39 -5 -1 -12 -4 -15 -7 -7 -7 -107
-49 -147 -63 -18 -6 -33 -14 -33 -19 0 -4 -5 -8 -11 -8 -13 0 -244 -115 -317
-159 -29 -17 -55 -31 -57 -31 -14 0 -380 -241 -421 -277 -10 -10 -53 -44 -94
-75 -76 -59 -97 -76 -209 -176 -82 -73 -255 -246 -314 -314 -25 -29 -55 -64
-67 -78 -12 -14 -39 -45 -59 -70 -20 -25 -39 -47 -42 -50 -33 -28 -306 -429
-350 -513 -11 -23 -32 -60 -45 -82 -13 -22 -26 -47 -30 -55 -3 -8 -9 -22 -14
-30 -9 -16 -62 -121 -65 -130 -1 -3 -16 -36 -34 -75 -67 -144 -205 -513 -226
-605 -2 -8 -17 -68 -34 -133 -17 -65 -33 -128 -35 -140 -3 -12 -5 -22 -6 -22
-1 0 -3 -9 -5 -20 -1 -11 -10 -63 -19 -115 -10 -52 -20 -113 -22 -135 -3 -22
-7 -46 -9 -53 -2 -7 -7 -40 -11 -75 -3 -34 -7 -73 -10 -87 -19 -122 -27 -741
-11 -925 10 -122 21 -218 31 -280 3 -16 8 -52 12 -80 4 -27 8 -54 10 -60 1 -5
7 -39 13 -75 7 -36 19 -94 27 -129 15 -61 18 -74 28 -120 14 -61 77 -280 93
-321 4 -8 7 -17 8 -20 1 -3 4 -12 8 -20 3 -8 11 -33 18 -55 7 -22 19 -56 28
-75 8 -19 16 -39 17 -45 1 -10 18 -52 59 -142 13 -28 21 -54 17 -57 -3 -3 0
-6 6 -6 7 0 12 -5 12 -12 0 -16 111 -241 123 -249 5 -3 9 -10 8 -15 0 -14 124
-226 185 -316 30 -44 54 -84 54 -88 0 -5 4 -10 8 -12 5 -1 23 -25 41 -51 30
-44 160 -211 214 -273 158 -187 394 -414 582 -564 50 -39 98 -77 108 -85 9 -8
21 -15 26 -15 5 0 11 -4 13 -8 2 -4 25 -23 53 -42 27 -19 54 -39 60 -43 9 -7
45 -31 94 -62 125 -79 169 -105 176 -105 5 0 16 -6 24 -14 44 -39 459 -239
631 -303 30 -12 86 -33 125 -48 38 -15 77 -27 87 -28 10 -1 18 -5 18 -10 0 -4
6 -7 13 -6 6 1 19 -1 27 -4 23 -9 113 -38 130 -42 8 -2 42 -11 75 -20 68 -19
210 -54 240 -60 11 -2 20 -4 20 -5 0 -1 9 -3 20 -4 11 -2 47 -9 80 -15 83 -17
88 -18 195 -34 52 -9 102 -15 110 -15 8 0 27 -3 42 -6 27 -6 66 -10 233 -23
50 -4 243 -8 430 -8 340 0 448 5 655 31 25 3 59 7 75 9 17 1 30 4 30 5 0 1 11
3 25 4 46 5 125 18 160 26 19 5 55 12 80 15 65 10 64 10 78 18 6 5 12 6 12 3
0 -2 15 0 33 5 17 5 48 12 67 15 19 3 43 10 53 15 9 5 17 8 17 5 0 -2 21 3 48
11 26 8 58 17 72 19 39 8 350 114 382 130 15 8 28 12 28 10 0 -3 30 8 66 24
36 17 72 30 80 30 8 0 14 5 14 10 0 6 3 9 8 8 4 -1 27 7 52 17 69 28 453 224
471 241 8 8 21 14 27 14 7 0 12 4 12 9 0 5 8 11 18 14 17 6 73 38 82 47 3 3
30 21 60 40 30 19 57 37 60 40 3 3 32 23 64 45 33 22 68 47 77 55 38 32 49 40
58 40 5 0 11 4 13 9 2 5 33 33 69 63 37 29 93 76 125 103 74 63 313 301 379
378 28 32 59 68 70 81 11 12 29 35 40 50 11 16 27 36 36 45 9 9 36 43 60 76
24 33 48 64 52 70 39 50 96 135 90 135 -5 0 -3 4 3 8 6 4 30 36 53 72 22 36
45 70 50 76 5 7 8 14 5 17 -2 2 2 10 11 17 8 7 15 19 15 26 0 8 3 14 8 14 4 0
12 10 18 23 6 12 47 92 90 177 44 85 87 174 97 197 9 23 25 61 36 85 28 63 43
106 41 114 -1 4 2 10 7 13 9 7 55 128 56 149 0 6 5 12 10 12 6 0 8 3 5 6 -4 3
7 45 23 92 38 111 100 352 94 363 -3 4 -1 10 4 13 5 3 12 26 16 52 3 25 9 56
11 67 13 55 36 186 39 222 1 22 5 47 8 55 3 8 5 22 6 30 0 8 2 35 5 60 16 150
21 269 20 555 0 339 -5 505 -15 505 -3 0 -7 25 -8 55 -1 30 -4 65 -7 77 -3 13
-7 40 -10 61 -3 32 -18 118 -39 232 -5 24 -54 231 -70 295 -25 96 -37 138 -45
155 -9 20 -42 122 -46 140 -1 6 -12 37 -25 70 -13 33 -22 63 -21 68 1 4 -3 7
-10 7 -6 0 -9 2 -6 6 8 7 -78 209 -150 354 -76 154 -213 394 -259 455 -5 6
-21 30 -37 55 -27 43 -194 269 -206 280 -3 3 -30 34 -59 70 -30 36 -61 72 -68
80 -28 34 -302 309 -353 355 -55 49 -247 204 -325 261 -22 16 -41 32 -43 37
-2 4 -7 7 -12 7 -5 0 -44 24 -87 54 -99 68 -296 186 -311 186 -5 0 -12 3 -14
8 -5 11 -227 123 -378 190 -150 66 -358 145 -495 187 -106 32 -114 35 -118 34
-1 0 -14 4 -30 10 -15 6 -38 13 -50 15 -12 3 -67 16 -122 29 -87 22 -157 37
-230 51 -175 33 -211 39 -340 52 -61 6 -110 12 -110 14 0 9 -868 24 -877 15z
m1262 -1535 c8 -5 11 -10 5 -10 -5 0 -17 5 -25 10 -8 5 -10 10 -5 10 6 0 17
-5 25 -10z m47 -16 c-3 -3 -12 -4 -19 -1 -8 3 -5 6 6 6 11 1 17 -2 13 -5z m78
-24 c3 -5 1 -10 -4 -10 -6 0 -11 5 -11 10 0 6 2 10 4 10 3 0 8 -4 11 -10z
m130 -50 c3 -5 -4 -6 -15 -3 -11 3 -22 9 -25 13 -3 5 4 6 15 3 11 -3 22 -9 25
-13z m105 -46 c0 -2 -13 2 -30 11 -16 9 -30 18 -30 21 0 2 14 -2 30 -11 17 -9
30 -18 30 -21z m25 -4 c3 -5 1 -10 -4 -10 -6 0 -11 5 -11 10 0 6 2 10 4 10 3
0 8 -4 11 -10z m51 -25 c16 -8 22 -15 14 -15 -8 1 -24 7 -34 15 -25 19 -16 19
20 0z m267 -142 c9 -9 17 -13 17 -9 0 4 10 -2 22 -14 12 -11 28 -20 35 -20 7
0 13 -5 13 -11 0 -5 4 -8 9 -5 5 3 11 -1 15 -9 3 -8 4 -15 2 -15 -2 0 -39 24
-82 53 -44 28 -121 72 -171 97 -51 25 -92 48 -92 53 -1 9 208 -99 232 -120z
m218 -142 c62 -46 56 -42 129 -101 118 -97 261 -239 383 -383 27 -31 48 -58
48 -61 0 -3 11 -18 25 -33 14 -16 48 -62 75 -103 26 -41 53 -80 59 -87 5 -7
10 -14 10 -16 0 -2 22 -42 50 -88 27 -46 50 -90 50 -96 0 -7 5 -13 10 -13 6 0
10 -4 10 -10 0 -24 -18 -7 -39 38 -30 62 -93 166 -103 170 -4 2 -8 8 -8 13 0
19 -127 197 -205 288 -142 165 -327 345 -441 427 -23 17 -42 31 -126 97 -45
35 16 0 73 -42z m872 -1043 c10 -16 14 -28 9 -28 -8 0 -32 43 -32 57 0 7 1 6
23 -29z m54 -115 c18 -42 29 -73 24 -67 -15 14 -71 144 -63 144 4 0 22 -35 39
-77z m41 -90 c-1 -5 3 -18 10 -30 7 -13 9 -23 4 -23 -6 0 -12 8 -16 18 -3 9
-9 23 -12 30 -3 6 -1 12 5 12 6 0 10 -3 9 -7z m30 -88 c-3 -3 -9 2 -12 12 -6
14 -5 15 5 6 7 -7 10 -15 7 -18z m29 -77 c4 -28 -6 -18 -12 12 -2 12 -1 20 2
16 4 -4 8 -16 10 -28z m18 -38 c3 -5 1 -10 -4 -10 -6 0 -11 5 -11 10 0 6 2 10
4 10 3 0 8 -4 11 -10z m25 -95 c0 -5 -5 -3 -10 5 -5 8 -10 20 -10 25 0 6 5 3
10 -5 5 -8 10 -19 10 -25z m27 -107 c-3 -8 -6 -5 -6 6 -1 11 2 17 5 13 3 -3 4
-12 1 -19z m-5867 -1658 c0 -5 -2 -10 -4 -10 -3 0 -8 5 -11 10 -3 6 -1 10 4
10 6 0 11 -4 11 -10z m20 -80 c0 -5 -2 -10 -4 -10 -3 0 -8 5 -11 10 -3 6 -1
10 4 10 6 0 11 -4 11 -10z m20 -80 c5 -19 6 -29 1 -24 -10 10 -26 72 -17 63 4
-4 11 -21 16 -39z m20 -50 c0 -5 -2 -10 -4 -10 -3 0 -8 5 -11 10 -3 6 -1 10 4
10 6 0 11 -4 11 -10z m14 -46 c3 -11 7 -28 11 -39 6 -18 6 -19 -5 -2 -12 19
-25 76 -15 66 3 -4 7 -15 9 -25z m56 -146 c93 -237 257 -520 423 -733 92 -118
256 -291 368 -385 29 -25 64 -55 78 -67 33 -29 41 -35 71 -54 14 -9 36 -26 49
-38 13 -11 27 -21 31 -21 4 0 23 -14 41 -31 19 -17 27 -27 19 -23 -26 14 -125
87 -128 96 -2 4 -8 8 -14 8 -15 0 -115 82 -236 195 -96 89 -131 125 -235 246
-52 60 -56 66 -99 123 -20 28 -41 56 -45 61 -29 36 -149 230 -183 295 -78 150
-120 241 -152 330 -12 30 -25 61 -31 68 -6 8 -6 12 1 12 5 0 24 -37 42 -82z
m1126 -1368 c8 0 14 -4 14 -10 0 -5 -4 -10 -8 -10 -12 0 -32 22 -31 35 0 5 3
4 6 -2 2 -7 11 -13 19 -13z m64 -40 c14 -11 30 -20 37 -20 6 0 15 -4 18 -10 4
-6 -1 -7 -12 -3 -25 9 -90 53 -78 53 6 0 21 -9 35 -20z m146 -87 c-6 -6 -75
31 -76 40 0 5 18 -2 40 -14 22 -12 38 -24 36 -26z m64 -26 c13 -5 13 -6 -1 -6
-8 -1 -24 6 -35 15 -19 15 -19 15 1 6 11 -5 27 -12 35 -15z m35 -17 c3 -5 1
-10 -4 -10 -6 0 -11 5 -11 10 0 6 2 10 4 10 3 0 8 -4 11 -10z m45 -20 c13 -8
13 -10 -2 -10 -9 0 -20 5 -23 10 -8 13 5 13 25 0z m86 -48 c-5 -4 -66 26 -66
33 0 3 16 -3 35 -12 19 -9 33 -18 31 -21z m48 -11 c4 -5 -3 -7 -14 -4 -23 6
-26 13 -6 13 8 0 17 -4 20 -9z m50 -30 c-2 -3 -12 3 -22 13 -16 17 -16 18 5 5
12 -7 20 -15 17 -18z m116 -31 c8 -5 11 -10 5 -10 -5 0 -17 5 -25 10 -8 5 -10
10 -5 10 6 0 17 -5 25 -10z m115 -40 c3 -6 -1 -7 -9 -4 -18 7 -21 14 -7 14 6
0 13 -4 16 -10z"/>
</g>
</svg>
