<svg width="174" height="150" viewBox="0 0 174 150" fill="none" xmlns="http://www.w3.org/2000/svg">
<path d="M151.081 59.7482C172.251 71.9705 172.362 91.7863 151.327 104.011L103.231 131.961C92.2069 138.368 77.5651 141.414 63.0774 141.105L57.6112 144.282C44.4911 151.907 23.1528 151.905 9.95046 144.282C-3.25905 136.656 -3.32253 124.298 9.79563 116.675L14.5441 113.916C11.3873 104.135 13.5529 95.2618 26.5675 87.6987L74.6629 59.7482C95.6979 47.524 129.909 47.524 151.081 59.7482Z" fill="black" fill-opacity="0.35"/>
<path d="M39.8028 62.8022C56.5448 53.0727 73.2849 43.3445 90.0256 33.6157C86.0455 35.9284 83.578 40.8472 83.5585 47.8384C83.5184 61.9114 93.413 79.048 105.659 86.1188L55.4364 115.306C43.1896 108.234 33.2956 91.0979 33.3351 77.0249C33.3552 70.0337 35.8227 65.1149 39.8028 62.8022Z" fill="#272727" stroke="#FFFF00" stroke-width="1.5"/>
<path d="M121.437 87.665L71.2146 116.851C67.1826 119.194 61.5998 118.864 55.4371 115.306L105.66 86.1187C111.823 89.6771 117.406 90.0075 121.437 87.665Z" fill="#272727" stroke="#FFFF00" stroke-width="1.5"/>
<path fill-rule="evenodd" clip-rule="evenodd" d="M84.0584 23.3476L33.8381 52.5325C39.4013 49.3003 47.1047 49.757 55.6078 54.6666L55.6081 54.6666C72.5082 64.4239 86.1614 88.0735 86.107 107.493C86.0791 117.14 82.6742 123.927 77.1815 127.12C85.0211 122.563 92.8607 118.008 100.7 113.452C109.602 108.279 118.503 103.106 127.404 97.9326C132.897 94.7408 136.303 87.953 136.329 78.3058C136.385 58.8871 122.731 35.2374 105.831 25.4801L105.831 25.4802C97.3262 20.5704 89.6218 20.1144 84.0584 23.3476Z" fill="#272727"/>
<path d="M33.8381 52.5325L33.4613 51.8841L34.2149 53.181L33.8381 52.5325ZM84.0584 23.3476L84.4352 23.996L84.4352 23.996L84.0584 23.3476ZM55.6078 54.6666L55.2328 55.3161L55.4732 55.4549L55.746 55.4038L55.6078 54.6666ZM55.6081 54.6666L55.9831 54.0171L55.7427 53.8783L55.4699 53.9294L55.6081 54.6666ZM86.107 107.493L86.857 107.495V107.495L86.107 107.493ZM77.1815 127.12L76.8046 126.471L77.5583 127.768L77.1815 127.12ZM100.7 113.452L100.324 112.803L100.7 113.452ZM127.404 97.9326L127.027 97.2841L127.027 97.2841L127.404 97.9326ZM136.329 78.3058L135.579 78.3037V78.3038L136.329 78.3058ZM105.831 25.4801L106.206 24.8306L105.973 24.6962L105.708 24.7402L105.831 25.4801ZM105.831 25.4802L105.456 26.1297L105.688 26.264L105.953 26.22L105.831 25.4802ZM34.215 53.181L84.4352 23.996L83.6815 22.6991L33.4613 51.8841L34.215 53.181ZM55.9828 54.0171C47.3428 49.0285 39.3389 48.4692 33.4614 51.884L34.2149 53.181C39.4638 50.1314 46.8665 50.4855 55.2328 55.3161L55.9828 54.0171ZM55.4699 53.9294L55.4696 53.9295L55.746 55.4038L55.7463 55.4037L55.4699 53.9294ZM86.857 107.495C86.8847 97.6217 83.4325 86.725 77.865 77.0815C72.2973 67.4378 64.5736 58.9769 55.9831 54.0171L55.2331 55.3161C63.5426 60.1137 71.0956 68.3562 76.5659 77.8315C82.0365 87.3069 85.3837 97.9448 85.357 107.491L86.857 107.495ZM77.5583 127.768C83.3613 124.395 86.8287 117.301 86.857 107.495L85.357 107.491C85.3296 116.979 81.9871 123.459 76.8046 126.471L77.5583 127.768ZM100.324 112.803C92.4839 117.359 84.6443 121.915 76.8046 126.471L77.5583 127.768C85.398 123.212 93.2376 118.656 101.077 114.1L100.324 112.803ZM127.027 97.2841C118.126 102.458 109.225 107.63 100.324 112.803L101.077 114.1C109.978 108.927 118.88 103.755 127.781 98.581L127.027 97.2841ZM135.579 78.3038C135.553 87.7921 132.21 94.2726 127.027 97.2841L127.781 98.581C133.584 95.209 137.052 88.114 137.079 78.3079L135.579 78.3038ZM105.456 26.1296C113.765 30.9272 121.319 39.1698 126.789 48.6449C132.259 58.1203 135.607 68.758 135.579 78.3037L137.079 78.308C137.107 68.4349 133.656 57.5384 128.088 47.8949C122.52 38.2513 114.796 29.7904 106.206 24.8306L105.456 26.1296ZM105.953 26.22L105.954 26.22L105.708 24.7402L105.708 24.7403L105.953 26.22ZM84.4352 23.996C89.6843 20.9455 97.0881 21.299 105.456 26.1297L106.206 24.8306C97.5643 19.8419 89.5592 19.2832 83.6815 22.6991L84.4352 23.996Z" fill="#FFFF00"/>
<path d="M55.6082 54.6669C72.5082 64.4242 86.1615 88.0738 86.1071 107.493C86.0514 126.913 72.3081 134.744 55.4086 124.987C38.5079 115.229 24.8546 91.5804 24.9097 72.161C24.9648 52.7416 38.7087 44.9095 55.6082 54.6669ZM55.4365 115.306C67.6834 122.376 77.6415 116.701 77.6823 102.628C77.7218 88.5558 67.8278 71.4186 55.581 64.3478C43.3347 57.2769 33.3759 62.9524 33.3351 77.0248C33.2956 91.0978 43.189 108.234 55.4365 115.306Z" fill="#272727" stroke="#FFFF00" stroke-width="1.5"/>
<path fill-rule="evenodd" clip-rule="evenodd" d="M28.3676 70.9351C21.7677 74.7704 15.1677 78.6057 8.56805 82.4415C4.75115 84.6596 2.38145 89.3705 2.36267 96.0592C2.3238 109.528 11.8272 125.988 23.5487 132.754L23.5493 132.754C29.4461 136.159 34.798 136.47 38.666 134.223C49.3192 128.032 59.9725 121.841 70.6264 115.649C66.7583 117.897 61.4061 117.587 55.5091 114.181L55.5085 114.181C43.7866 107.413 34.2842 90.9548 34.3224 77.4858C34.3412 70.7971 36.7109 66.0863 40.5284 63.8682C36.4749 66.2239 32.4212 68.5795 28.3676 70.9351Z" fill="#272727"/>
<path d="M8.56805 82.4415L8.94488 83.09L8.94492 83.09L8.56805 82.4415ZM28.3676 70.9351L28.7444 71.5836L28.3676 70.9351ZM2.36267 96.0592L3.11266 96.0613L3.11266 96.0613L2.36267 96.0592ZM23.5487 132.754L23.1737 133.404L23.5515 133.622L23.9279 133.402L23.5487 132.754ZM23.5493 132.754L23.9243 132.105L23.5465 131.886L23.1701 132.107L23.5493 132.754ZM38.666 134.223L39.0428 134.871L39.0428 134.871L38.666 134.223ZM70.6264 115.649L71.0033 116.297L70.2495 115.001L70.6264 115.649ZM55.5091 114.181L55.8841 113.532L55.5093 113.315L55.1343 113.531L55.5091 114.181ZM55.5085 114.181L55.1334 114.831L55.5083 115.047L55.8833 114.831L55.5085 114.181ZM34.3224 77.4858L35.0724 77.4879V77.4879L34.3224 77.4858ZM40.5284 63.8682L40.9053 64.5166L40.1516 63.2197L40.5284 63.8682ZM8.94492 83.09C15.5446 79.2542 22.1445 75.4189 28.7444 71.5836L27.9907 70.2867C21.3909 74.122 14.7909 77.9573 8.19117 81.7931L8.94492 83.09ZM3.11266 96.0613C3.131 89.5326 5.43753 85.1282 8.94488 83.09L8.19121 81.7931C4.06476 84.1911 1.63191 89.2084 1.61267 96.0571L3.11266 96.0613ZM23.9236 132.105C18.2037 128.803 12.9828 123.106 9.19505 116.545C5.40718 109.984 3.0937 102.632 3.11266 96.0613L1.61267 96.057C1.59276 102.955 4.01154 110.567 7.89602 117.295C11.7806 124.023 17.1721 129.939 23.1737 133.404L23.9236 132.105ZM23.1701 132.107L23.1695 132.107L23.9279 133.402L23.9285 133.401L23.1701 132.107ZM38.2892 133.574C34.7348 135.639 29.6832 135.429 23.9243 132.105L23.1743 133.404C29.209 136.888 34.8612 137.301 39.0428 134.871L38.2892 133.574ZM70.2495 115.001C59.5956 121.192 48.9424 127.383 38.2891 133.575L39.0428 134.871C49.6961 128.68 60.3493 122.489 71.0032 116.297L70.2495 115.001ZM55.134 114.83C61.169 118.316 66.8216 118.728 71.0033 116.297L70.2495 115.001C66.695 117.067 61.6432 116.857 55.8841 113.532L55.134 114.83ZM55.8833 114.831L55.8839 114.831L55.1343 113.531L55.1337 113.532L55.8833 114.831ZM33.5724 77.4837C33.5528 84.3823 35.9715 91.9934 39.8559 98.7213C43.7404 105.449 49.1318 111.365 55.1334 114.831L55.8835 113.532C50.1633 110.229 44.9426 104.532 41.1549 97.9713C37.3672 91.4107 35.0538 84.0584 35.0724 77.4879L33.5724 77.4837ZM40.1516 63.2197C36.0245 65.6177 33.5916 70.635 33.5724 77.4837L35.0724 77.4879C35.0907 70.9593 37.3973 66.5549 40.9052 64.5166L40.1516 63.2197ZM28.7444 71.5836C32.7981 69.228 36.8517 66.8723 40.9053 64.5166L40.1516 63.2197C36.098 65.5754 32.0444 67.931 27.9907 70.2867L28.7444 71.5836Z" fill="#FFFF00"/>
<path fill-rule="evenodd" clip-rule="evenodd" d="M39.8726 62.7345L7.91491 81.3067C11.9467 78.9642 17.5281 79.2945 23.689 82.8523L23.6901 82.8516C35.9369 89.9226 45.8314 107.064 45.7913 121.133C45.7718 128.124 43.303 133.045 39.3216 135.359C46.7082 131.066 54.0951 126.773 61.4818 122.48C64.7486 120.582 68.0153 118.684 71.282 116.785C75.2628 114.472 77.7316 109.552 77.751 102.559C77.7918 88.4914 67.8972 71.349 55.6503 64.2781L55.6492 64.2788C49.4873 60.7211 43.9045 60.3914 39.8726 62.7345Z" fill="#272727"/>
<path d="M7.91491 81.3067L7.53807 80.6583L8.29169 81.9552L7.91491 81.3067ZM39.8726 62.7345L39.4958 62.0861L39.4958 62.0861L39.8726 62.7345ZM23.689 82.8523L23.3139 83.5018L23.69 83.7189L24.0655 83.5009L23.689 82.8523ZM23.6901 82.8516L24.0651 82.2021L23.6891 81.985L23.3136 82.203L23.6901 82.8516ZM45.7913 121.133L45.0413 121.13V121.131L45.7913 121.133ZM39.3216 135.359L38.9447 134.711L39.6984 136.008L39.3216 135.359ZM61.4818 122.48L61.105 121.832L61.4818 122.48ZM71.282 116.785L70.9051 116.137L70.9051 116.137L71.282 116.785ZM77.751 102.559L77.001 102.556V102.556L77.751 102.559ZM55.6503 64.2781L56.0253 63.6286L55.6488 63.4112L55.273 63.6299L55.6503 64.2781ZM55.6492 64.2788L55.2742 64.9283L55.6507 65.1457L56.0264 64.927L55.6492 64.2788ZM8.29176 81.9552L40.2495 63.383L39.4958 62.0861L7.53807 80.6583L8.29176 81.9552ZM24.0641 82.2028C17.7661 78.5659 11.8842 78.1331 7.53814 80.6582L8.29169 81.9552C12.0092 79.7953 17.29 80.023 23.3139 83.5018L24.0641 82.2028ZM23.3136 82.203L23.3125 82.2036L24.0655 83.5009L24.0666 83.5003L23.3136 82.203ZM46.5413 121.135C46.5618 113.937 44.0458 106.005 39.9978 98.9931C35.9497 91.981 30.329 85.8187 24.0651 82.2021L23.3151 83.5011C29.298 86.9555 34.7479 92.8994 38.6988 99.743C42.6497 106.587 45.0609 114.26 45.0413 121.13L46.5413 121.135ZM39.6984 136.008C43.9901 133.513 46.5214 128.285 46.5413 121.135L45.0413 121.131C45.0223 127.963 42.6159 132.577 38.9447 134.711L39.6984 136.008ZM61.105 121.832C53.7182 126.124 46.3313 130.417 38.9447 134.711L39.6985 136.008C47.085 131.714 54.4719 127.421 61.8587 123.129L61.105 121.832ZM70.9051 116.137C67.6385 118.035 64.3718 119.933 61.105 121.832L61.8587 123.129C65.1254 121.23 68.3922 119.332 71.6588 117.434L70.9051 116.137ZM77.001 102.556C76.982 109.391 74.5757 114.004 70.9051 116.137L71.6588 117.434C75.9499 114.94 78.4811 109.713 78.501 102.561L77.001 102.556ZM55.2753 64.9276C61.2582 68.3819 66.7082 74.3261 70.659 81.1697C74.6099 88.0135 77.0209 95.6866 77.001 102.556L78.501 102.561C78.5219 95.3634 76.006 87.4316 71.9581 80.4197C67.91 73.4077 62.2893 67.2452 56.0253 63.6286L55.2753 64.9276ZM56.0264 64.927L56.0275 64.9263L55.273 63.6299L55.2719 63.6306L56.0264 64.927ZM40.2495 63.383C43.9671 61.2225 49.2493 61.4497 55.2742 64.9283L56.0242 63.6293C49.7253 59.9925 43.8419 59.5603 39.4958 62.0861L40.2495 63.383Z" fill="#FFFF00"/>
<path d="M23.6899 82.8519C35.9367 89.9227 45.8314 107.064 45.7912 121.133C45.7511 135.205 35.7923 140.885 23.5454 133.814C11.2986 126.744 1.40389 109.601 1.44471 95.5289C1.48422 81.461 11.443 75.7817 23.6899 82.8519ZM23.5487 132.755C35.2663 139.52 44.8344 134.072 44.8733 120.603C44.9115 107.138 35.4042 90.6774 23.6866 83.9117C11.9652 77.1447 2.40087 82.5947 2.36265 96.0594C2.32378 109.528 11.8272 125.988 23.5487 132.755Z" fill="#272727" stroke="#FFFF00" stroke-width="1.5"/>
<path fill-rule="evenodd" clip-rule="evenodd" d="M118.445 2.13286L45.3954 44.5841C51.1289 41.253 59.064 41.715 67.8078 46.7638L67.8082 46.7636C85.1874 56.7977 99.2822 81.2069 99.2265 101.176C99.1973 111.097 95.6823 118.087 90.0211 121.376C103.824 113.354 117.627 105.333 131.43 97.3109C141.978 91.1814 152.525 85.0518 163.073 78.9219C168.735 75.6317 172.25 68.645 172.278 58.7225C172.335 38.7531 158.239 14.3436 140.859 4.30965L140.859 4.30987C132.116 -0.738885 124.179 -1.20005 118.445 2.13286Z" fill="#272727"/>
<path d="M45.3954 44.5841L45.0185 43.9356L45.7721 45.2326L45.3954 44.5841ZM118.445 2.13286L118.821 2.78132L118.821 2.78129L118.445 2.13286ZM67.8078 46.7638L67.4328 47.4133L67.8088 47.6304L68.1843 47.4125L67.8078 46.7638ZM67.8082 46.7636L68.1832 46.1141L67.8072 45.897L67.4318 46.1149L67.8082 46.7636ZM99.2265 101.176L99.9765 101.178V101.178L99.2265 101.176ZM90.0211 121.376L89.6442 120.728L90.3979 122.025L90.0211 121.376ZM131.43 97.3109L131.807 97.9594L131.43 97.3109ZM163.073 78.9219L162.696 78.2734L162.696 78.2734L163.073 78.9219ZM172.278 58.7225L171.528 58.7203V58.7205L172.278 58.7225ZM140.859 4.30965L141.234 3.66012L140.857 3.44227L140.481 3.66218L140.859 4.30965ZM140.859 4.30987L140.484 4.95936L140.861 5.17727L141.238 4.95733L140.859 4.30987ZM45.7722 45.2325L118.821 2.78132L118.068 1.48441L45.0185 43.9356L45.7722 45.2325ZM68.1829 46.1143C59.3011 40.9859 51.0658 40.4223 45.0186 43.9356L45.7721 45.2326C51.1921 42.0837 58.8268 42.4441 67.4328 47.4133L68.1829 46.1143ZM67.4318 46.1149L67.4314 46.1151L68.1843 47.4125L68.1846 47.4123L67.4318 46.1149ZM99.9765 101.178C100.005 91.0295 96.4424 79.8055 90.7049 69.8692C84.9674 59.9326 77.0136 51.2124 68.1832 46.1141L67.4332 47.4131C75.982 52.3489 83.7652 60.8503 89.4059 70.6192C95.0468 80.3883 98.5039 91.3535 98.4765 101.174L99.9765 101.178ZM90.3979 122.025C96.3687 118.555 99.9469 111.259 99.9765 101.178L98.4765 101.174C98.4478 110.935 94.9959 117.618 89.6443 120.728L90.3979 122.025ZM131.054 96.6625C117.25 104.684 103.447 112.706 89.6442 120.728L90.398 122.025C104.201 114.002 118.004 105.981 131.807 97.9594L131.054 96.6625ZM162.696 78.2734C152.148 84.4034 141.601 90.5329 131.054 96.6625L131.807 97.9594C142.355 91.8298 152.902 85.7003 163.45 79.5703L162.696 78.2734ZM171.528 58.7205C171.501 68.4829 168.048 75.1631 162.696 78.2734L163.45 79.5704C169.421 76.1003 173 68.8072 173.028 58.7246L171.528 58.7205ZM140.484 4.95918C149.034 9.89487 156.817 18.3964 162.458 28.1653C168.099 37.9345 171.556 48.8998 171.528 58.7203L173.028 58.7247C173.057 48.5758 169.495 37.3517 163.757 27.4152C158.019 17.4786 150.065 8.75838 141.234 3.66012L140.484 4.95918ZM141.238 4.95733L141.238 4.95712L140.481 3.66218L140.48 3.6624L141.238 4.95733ZM118.821 2.78129C124.242 -0.36936 131.879 -0.00973313 140.484 4.95936L141.234 3.66037C132.353 -1.46804 124.116 -2.03075 118.068 1.48444L118.821 2.78129Z" fill="#FFFF00"/>
<path d="M45.9013 45.5307C51.4647 42.2969 59.1691 42.7529 67.6736 47.6633C72.9623 50.7164 77.933 55.1306 82.2649 60.35C91.8492 71.8254 98.3455 87.2433 98.3079 100.646C98.2768 111.515 93.9553 118.751 87.1941 121.309C85.9911 122.009 84.7875 122.707 83.5845 123.407C92.9006 122.469 99.1889 114.454 99.2265 101.176C99.2822 81.207 85.1872 56.7975 67.8077 46.7635C56.5805 40.2809 46.691 41.3699 41.0784 48.3332L45.9013 45.5307Z" fill="#272727" stroke="#FFFF00" stroke-width="1.5"/>
</svg>
