<svg width="173" height="150" viewBox="0 0 173 150" fill="none" xmlns="http://www.w3.org/2000/svg">
<path d="M151.081 59.7482C172.251 71.9705 172.362 91.7863 151.327 104.011L103.231 131.961C92.2069 138.368 77.5651 141.414 63.0774 141.105L57.6112 144.282C44.4911 151.907 23.1528 151.905 9.95046 144.282C-3.25905 136.656 -3.32253 124.298 9.79563 116.675L14.5441 113.916C11.3873 104.135 13.5529 95.2618 26.5675 87.6987L74.6629 59.7482C95.6979 47.524 129.909 47.524 151.081 59.7482Z" fill="black" fill-opacity="0.25"/>
<path d="M39.8029 62.8022C56.5449 53.0727 73.285 43.3445 90.0257 33.6157C86.0456 35.9284 83.578 40.8472 83.5586 47.8384C83.5184 61.9114 93.4131 79.048 105.659 86.1188L55.4365 115.306C43.1896 108.234 33.2956 91.0979 33.3351 77.0249C33.3552 70.0337 35.8227 65.1149 39.8029 62.8022Z" fill="#2D2D2D"/>
<path d="M121.437 87.665L71.2146 116.851C67.1826 119.194 61.5998 118.864 55.4372 115.306L105.66 86.1187C111.823 89.6771 117.406 90.0075 121.437 87.665Z" fill="#353535"/>
<path d="M33.8359 52.534L84.0587 23.3476C89.6221 20.1144 97.3266 20.5704 105.831 25.4802L55.6082 54.6666C47.1037 49.7562 39.3993 49.3002 33.8359 52.534Z" fill="#919191"/>
<path d="M127.404 97.9324C110.663 107.663 93.9222 117.39 77.1815 127.12C82.6743 123.927 86.0792 117.14 86.107 107.493C86.1614 88.0734 72.5082 64.4238 55.6081 54.6665L105.831 25.48C122.731 35.2373 136.385 58.8869 136.329 78.3057C136.303 87.9529 132.897 94.7407 127.404 97.9324Z" fill="#9F9F9F"/>
<path d="M55.6082 54.6669C72.5082 64.4242 86.1615 88.0738 86.1071 107.493C86.0514 126.913 72.3081 134.744 55.4086 124.987C38.5079 115.229 24.8546 91.5804 24.9097 72.161C24.9648 52.7416 38.7087 44.9095 55.6082 54.6669ZM55.4365 115.306C67.6834 122.376 77.6415 116.701 77.6823 102.628C77.7218 88.5558 67.8278 71.4186 55.581 64.3478C43.3347 57.2769 33.3759 62.9524 33.3351 77.0248C33.2956 91.0978 43.189 108.234 55.4365 115.306Z" fill="#3A3A3A"/>
<path d="M8.56811 82.4415C19.2214 76.2498 29.8752 70.0593 40.5285 63.8682C36.7109 66.0863 34.3413 70.7971 34.3225 77.4858C34.2842 90.9551 43.787 107.413 55.5091 114.182L23.5487 132.754C11.8272 125.988 2.32386 109.528 2.36273 96.0592C2.38152 89.3705 4.75121 84.6596 8.56811 82.4415Z" fill="#2D2D2D"/>
<path d="M70.6264 115.649C59.9725 121.841 49.3193 128.032 38.666 134.223C34.7979 136.47 29.4457 136.159 23.5487 132.754L55.5091 114.181C61.4061 117.587 66.7583 117.898 70.6264 115.649Z" fill="#353535"/>
<path d="M7.91321 81.3079L39.8729 62.7345C43.9049 60.3914 49.4878 60.7211 55.6497 64.2789L23.6893 82.8523C17.5274 79.2939 11.9452 78.9641 7.91321 81.3079Z" fill="#919191"/>
<path d="M71.2821 116.785C60.6288 122.976 49.9749 129.167 39.3217 135.359C43.3031 133.045 45.7719 128.125 45.7914 121.133C45.8315 107.064 35.9369 89.9226 23.69 82.8517L55.6504 64.2783C67.8973 71.3492 77.7919 88.4916 77.7511 102.559C77.7317 109.552 75.2629 114.472 71.2821 116.785Z" fill="#9F9F9F"/>
<path d="M23.6899 82.8519C35.9368 89.9227 45.8315 107.064 45.7913 121.133C45.7511 135.205 35.7923 140.885 23.5455 133.814C11.2986 126.744 1.40395 109.601 1.44477 95.5289C1.48428 81.461 11.4431 75.7817 23.6899 82.8519ZM23.5487 132.755C35.2663 139.52 44.8345 134.072 44.8734 120.603C44.9116 107.138 35.4043 90.6774 23.6867 83.9117C11.9652 77.1447 2.40094 82.5947 2.36271 96.0594C2.32385 109.528 11.8272 125.988 23.5487 132.755Z" fill="#3A3A3A"/>
<path d="M45.3927 44.5859L118.445 2.13286C124.179 -1.20012 132.116 -0.738866 140.86 4.31017L67.8082 46.7638C59.0628 41.7141 51.1265 41.2529 45.3927 44.5859Z" fill="#919191"/>
<path d="M163.073 78.9218C138.722 93.0739 114.372 107.224 90.021 121.376C95.6823 118.087 99.1973 111.097 99.2264 101.176C99.2821 81.2066 85.1871 56.7971 67.8076 46.7632L140.859 4.30957C158.239 14.3435 172.335 38.753 172.277 58.7224C172.25 68.6449 168.735 75.6316 163.073 78.9218Z" fill="#9F9F9F"/>
<path d="M45.9013 45.5307C51.4647 42.2969 59.1691 42.7529 67.6735 47.6633C72.9623 50.7164 77.9329 55.1306 82.2648 60.35C91.8492 71.8254 98.3454 87.2433 98.3078 100.646C98.2767 111.515 93.9552 118.751 87.194 121.309C85.991 122.009 84.7874 122.707 83.5844 123.407C92.9006 122.469 99.1889 114.454 99.2264 101.176C99.2822 81.207 85.1871 56.7975 67.8076 46.7635C56.5804 40.2809 46.6909 41.3699 41.0783 48.3332L45.9013 45.5307Z" fill="#3A3A3A"/>
</svg>
