<svg width="209" height="150" viewBox="0 0 209 150" fill="none" xmlns="http://www.w3.org/2000/svg">
<path d="M195.426 77.1488C185.21 71.2507 168.701 71.2507 158.552 77.1488L144.054 85.6158C142.63 80.9916 138.834 76.5621 132.649 72.991C116.65 63.7543 90.7929 63.7543 74.898 72.991L11.8649 109.623C-4.03071 118.86 -3.94252 133.835 12.0566 143.071C28.0557 152.308 53.9088 152.31 69.8037 143.073L75.067 140.016C76.3257 141.563 78.0595 143.012 80.2735 144.29C90.4897 150.188 106.998 150.188 117.147 144.29L195.546 98.5074C205.695 92.6086 205.642 83.0461 195.426 77.1488Z" fill="black" fill-opacity="0.35"/>
<path fill-rule="evenodd" clip-rule="evenodd" d="M9.4577 64.6513L117.324 1.96661C122.613 -1.1067 129.932 -0.68128 137.996 3.97496C154.026 13.2299 167.021 35.7386 166.969 54.1529C166.942 63.2999 163.702 69.7424 158.481 72.7757C122.526 93.6715 86.5717 114.566 50.6154 135.461C52.8591 134.157 54.737 132.223 56.1512 129.716C53.9389 131.002 51.7265 132.287 49.5142 133.573C44.5089 136.482 37.5809 136.078 29.9454 131.67C14.7763 122.912 2.47145 101.605 2.52028 84.1695C2.54506 75.5115 5.61399 69.4123 10.5559 66.5401L16.9375 62.8315C14.1403 62.8 11.6025 63.4051 9.4577 64.6513Z" fill="#272727"/>
<path d="M117.324 1.96661L117.576 2.39891L117.576 2.3989L117.324 1.96661ZM9.4577 64.6513L9.20647 64.219L9.70889 65.0836L9.4577 64.6513ZM137.996 3.97496L137.746 4.40796L137.746 4.40797L137.996 3.97496ZM166.969 54.1529L167.469 54.1544V54.1543L166.969 54.1529ZM158.481 72.7757L158.23 72.3434L158.23 72.3434L158.481 72.7757ZM50.6154 135.461L50.3641 135.029L50.8666 135.893L50.6154 135.461ZM56.1512 129.716L56.5867 129.962L57.4903 128.36L55.9 129.284L56.1512 129.716ZM49.5142 133.573L49.7654 134.005L49.7654 134.005L49.5142 133.573ZM29.9454 131.67L30.1954 131.237H30.1954L29.9454 131.67ZM2.52028 84.1695L2.02028 84.1681L2.02028 84.1681L2.52028 84.1695ZM10.5559 66.5401L10.3047 66.1078L10.3047 66.1078L10.5559 66.5401ZM16.9375 62.8315L17.1887 63.2638L18.7577 62.352L16.9431 62.3316L16.9375 62.8315ZM117.073 1.5343L9.20647 64.219L9.70892 65.0836L117.576 2.39891L117.073 1.5343ZM138.246 3.54196C130.09 -1.16737 122.57 -1.6605 117.073 1.53431L117.576 2.3989C122.655 -0.552902 129.774 -0.19519 137.746 4.40796L138.246 3.54196ZM167.469 54.1543C167.495 44.8377 164.224 34.5207 158.946 25.3791C153.668 16.2374 146.355 8.22359 138.246 3.54195L137.746 4.40797C145.667 8.98123 152.866 16.8492 158.08 25.8791C163.294 34.9092 166.494 45.0537 166.469 54.1515L167.469 54.1543ZM158.733 73.208C164.159 70.0548 167.442 63.408 167.469 54.1544L166.469 54.1514C166.442 63.1919 163.244 69.4301 158.23 72.3434L158.733 73.208ZM50.8666 135.893C86.8229 114.998 122.777 94.1038 158.733 73.208L158.23 72.3434C122.275 93.2392 86.3205 114.134 50.3642 135.029L50.8666 135.893ZM55.7157 129.47C54.3414 131.907 52.5244 133.773 50.3641 135.029L50.8666 135.893C53.1937 134.541 55.1326 132.54 56.5867 129.962L55.7157 129.47ZM49.7654 134.005C51.9778 132.72 54.1901 131.434 56.4024 130.148L55.9 129.284C53.6876 130.569 51.4753 131.855 49.263 133.141L49.7654 134.005ZM29.6954 132.103C37.4228 136.564 44.551 137.035 49.7654 134.005L49.263 133.141C44.4667 135.928 37.739 135.592 30.1954 131.237L29.6954 132.103ZM2.02028 84.1681C1.99556 92.9953 5.09468 102.767 10.0931 111.424C15.0916 120.081 22.017 127.67 29.6954 132.103L30.1954 131.237C22.7047 126.912 15.8931 119.469 10.9591 110.924C6.02507 102.379 2.99617 92.7793 3.02028 84.1709L2.02028 84.1681ZM10.3047 66.1078C5.15647 69.0999 2.04537 75.4034 2.02028 84.1681L3.02028 84.171C3.04475 75.6197 6.07152 69.7247 10.8072 66.9724L10.3047 66.1078ZM16.6862 62.3992L10.3047 66.1078L10.8071 66.9724L17.1887 63.2638L16.6862 62.3992ZM9.70889 65.0836C11.7642 63.8894 14.2104 63.3008 16.9318 63.3315L16.9431 62.3316C14.0701 62.2991 11.4408 62.9208 9.2065 64.219L9.70889 65.0836Z" fill="#FFFF00"/>
<path d="M30.1291 66.6595C46.1581 75.9144 59.1539 98.4223 59.1022 116.837C59.0497 135.252 45.9687 142.705 29.9396 133.451C13.9143 124.199 0.918503 101.69 0.970247 83.2752C1.02345 64.8608 14.1038 57.4075 30.1291 66.6595ZM29.9447 131.67C45.1174 140.431 57.4988 133.377 57.5477 115.94C57.5965 98.5098 45.2967 77.2007 30.124 68.4399C14.9543 59.6821 2.56922 66.7396 2.51966 84.1701C2.47083 101.606 14.7757 122.913 29.9447 131.67Z" fill="#FFFF00" stroke="#FFFF00"/>
<path fill-rule="evenodd" clip-rule="evenodd" d="M151.842 55.5644C127.976 69.4344 104.11 83.304 80.2415 97.1744C77.2127 98.9352 75.3324 102.673 75.3164 107.979C75.2865 118.662 82.8279 131.723 92.1243 137.091C96.8032 139.793 101.049 140.039 104.117 138.256C129.615 123.439 155.112 108.622 180.609 93.8039L201.709 81.5416C198.641 83.3244 194.396 83.0778 189.717 80.3765C180.421 75.009 172.879 61.9469 172.909 51.265C172.925 45.9579 174.806 42.22 177.835 40.4592L151.842 55.5644Z" fill="#272727"/>
<path d="M80.2415 97.1744L79.9903 96.7421L79.9902 96.7421L80.2415 97.1744ZM151.842 55.5644L151.591 55.1321L151.842 55.5644ZM75.3164 107.979L74.8164 107.978L74.8164 107.978L75.3164 107.979ZM92.1243 137.091L92.3744 136.658L92.3743 136.658L92.1243 137.091ZM104.117 138.256L103.866 137.823L103.866 137.823L104.117 138.256ZM180.609 93.8039L180.358 93.3716L180.609 93.8039ZM201.709 81.5416L201.961 81.9739L201.458 81.1093L201.709 81.5416ZM189.717 80.3765L189.967 79.9435L189.967 79.9435L189.717 80.3765ZM172.909 51.265L172.409 51.2635V51.2636L172.909 51.265ZM177.835 40.4592L178.086 40.8915L177.583 40.0269L177.835 40.4592ZM80.4928 97.6067C104.361 83.7363 128.227 69.8667 152.094 55.9967L151.591 55.1321C127.724 69.0021 103.858 82.8717 79.9903 96.7421L80.4928 97.6067ZM75.8164 107.981C75.8321 102.781 77.6702 99.2475 80.4928 97.6067L79.9902 96.7421C76.7551 98.6228 74.8327 102.565 74.8164 107.978L75.8164 107.981ZM92.3743 136.658C87.82 134.028 83.6674 129.494 80.656 124.278C77.6445 119.062 75.8017 113.213 75.8164 107.981L74.8164 107.978C74.8011 113.429 76.7141 119.451 79.79 124.778C82.8659 130.106 87.1322 134.786 91.8743 137.524L92.3743 136.658ZM103.866 137.823C101.007 139.485 96.9612 139.306 92.3744 136.658L91.8743 137.524C96.6451 140.279 101.091 140.593 104.369 138.688L103.866 137.823ZM180.358 93.3716C154.861 108.189 129.364 123.006 103.866 137.823L104.369 138.688C129.866 123.871 155.363 109.054 180.86 94.2362L180.358 93.3716ZM201.458 81.1093L180.358 93.3716L180.86 94.2362L201.961 81.9739L201.458 81.1093ZM189.467 80.8095C194.238 83.5639 198.683 83.8782 201.961 81.974L201.458 81.1093C198.599 82.7706 194.554 82.5917 189.967 79.9435L189.467 80.8095ZM172.409 51.2636C172.394 56.714 174.307 62.7362 177.383 68.0636C180.459 73.3912 184.725 78.0715 189.467 80.8095L189.967 79.9435C185.413 77.3139 181.26 72.7795 178.249 67.5636C175.238 62.3476 173.395 56.4979 173.409 51.2664L172.409 51.2636ZM177.583 40.027C174.348 41.9076 172.426 45.8498 172.409 51.2635L173.409 51.2665C173.425 46.0661 175.263 42.5323 178.086 40.8915L177.583 40.027ZM152.094 55.9967L178.086 40.8915L177.583 40.0269L151.591 55.1321L152.094 55.9967Z" fill="#FFFF00"/>
<path fill-rule="evenodd" clip-rule="evenodd" d="M176.737 38.5704L79.145 95.2849C82.4952 93.3383 87.1305 93.609 92.2387 96.5581L92.2395 96.5575C102.393 102.419 110.63 116.68 110.596 128.348C110.58 134.143 108.527 138.222 105.22 140.144C130.705 125.335 156.19 110.525 181.674 95.7143C188.721 91.6195 195.767 87.5247 202.813 83.4298C206.12 81.5087 208.173 77.4282 208.189 71.6336C208.223 59.9664 199.987 45.7047 189.833 39.843L189.832 39.8436C184.723 36.8935 180.087 36.6238 176.737 38.5704Z" fill="#272727"/>
<path d="M79.145 95.2849L78.8938 94.8526L79.3962 95.7172L79.145 95.2849ZM176.737 38.5704L176.486 38.1381L176.486 38.1381L176.737 38.5704ZM92.2387 96.5581L91.9887 96.9911L92.2621 97.149L92.5222 96.9699L92.2387 96.5581ZM92.2395 96.5575L92.4895 96.1245L92.2161 95.9666L91.956 96.1456L92.2395 96.5575ZM110.596 128.348L111.096 128.349V128.349L110.596 128.348ZM105.22 140.144L104.969 139.712L105.471 140.577L105.22 140.144ZM181.674 95.7143L181.926 96.1466L181.674 95.7143ZM202.813 83.4298L202.562 82.9974L202.562 82.9975L202.813 83.4298ZM208.189 71.6336L208.689 71.635V71.635L208.189 71.6336ZM189.833 39.843L190.083 39.41L189.81 39.2529L189.551 39.4299L189.833 39.843ZM189.832 39.8436L189.582 40.2766L189.854 40.4338L190.113 40.2567L189.832 39.8436ZM79.3962 95.7172L176.988 39.0027L176.486 38.1381L78.8938 94.8526L79.3962 95.7172ZM92.4887 96.1251C87.2886 93.123 82.4531 92.7845 78.8938 94.8526L79.3962 95.7172C82.5373 93.8922 86.9723 94.0951 91.9887 96.9911L92.4887 96.1251ZM91.956 96.1456L91.9551 96.1462L92.5222 96.9699L92.5231 96.9693L91.956 96.1456ZM111.096 128.349C111.113 122.406 109.027 115.838 105.671 110.025C102.315 104.213 97.6601 99.1095 92.4895 96.1245L91.9896 96.9905C96.9725 99.8671 101.513 104.825 104.805 110.525C108.097 116.226 110.113 122.622 110.096 128.347L111.096 128.349ZM105.471 140.577C108.984 138.535 111.079 134.252 111.096 128.349L110.096 128.347C110.08 134.035 108.069 137.91 104.969 139.712L105.471 140.577ZM181.423 95.282C155.938 110.092 130.454 124.902 104.969 139.712L105.471 140.577C130.957 125.767 156.441 110.957 181.926 96.1466L181.423 95.282ZM202.562 82.9975C195.515 87.0924 188.469 91.1872 181.423 95.282L181.926 96.1466C188.972 92.0518 196.018 87.957 203.064 83.8621L202.562 82.9975ZM207.689 71.6321C207.673 77.3201 205.662 81.1963 202.562 82.9974L203.064 83.8621C206.577 81.8211 208.672 77.5363 208.689 71.635L207.689 71.6321ZM189.583 40.2761C194.566 43.1527 199.107 48.1106 202.398 53.8113C205.69 59.512 207.706 65.908 207.689 71.6321L208.689 71.635C208.706 65.692 206.621 59.1235 203.264 53.3112C199.908 47.4988 195.254 42.395 190.083 39.41L189.583 40.2761ZM190.113 40.2567L190.114 40.2561L189.551 39.4299L189.55 39.4305L190.113 40.2567ZM176.988 39.0028C180.129 37.1776 184.565 37.3796 189.582 40.2766L190.082 39.4106C184.881 36.4074 180.045 36.07 176.486 38.1381L176.988 39.0028Z" fill="#FFFF00"/>
<path d="M92.2389 96.5585C102.393 102.42 110.629 116.681 110.596 128.349C110.563 140.016 102.272 144.734 92.1186 138.872C81.9651 133.01 73.7334 118.752 73.7662 107.086C73.8005 95.4187 82.0861 90.6968 92.2389 96.5585ZM92.1244 137.092C101.422 142.459 109.012 138.134 109.043 127.452C109.072 116.768 101.531 103.706 92.2345 98.3389C82.938 92.9714 75.3477 97.2968 75.3171 107.98C75.2865 118.663 82.828 131.724 92.1244 137.092Z" fill="#FFFF00" stroke="#FFFF00"/>
</svg>
