<svg width="209" height="150" viewBox="0 0 209 150" fill="none" xmlns="http://www.w3.org/2000/svg">
<path d="M195.426 77.1488C185.21 71.2507 168.701 71.2507 158.552 77.1488L144.054 85.6158C142.63 80.9917 138.834 76.5621 132.65 72.991C116.65 63.7543 90.793 63.7543 74.8981 72.991L11.8649 109.623C-4.03071 118.86 -3.94253 133.835 12.0566 143.072C28.0558 152.308 53.9089 152.31 69.8038 143.073L75.0671 140.016C76.3258 141.563 78.0596 143.013 80.2736 144.29C90.4898 150.188 106.998 150.188 117.148 144.29L195.546 98.5074C205.696 92.6086 205.642 83.0461 195.426 77.1488Z" fill="black" fill-opacity="0.25"/>
<path d="M10.5559 66.5405L118.422 3.85498C113.48 6.72715 110.411 12.8264 110.387 21.4851C110.338 38.9207 122.642 60.2277 137.812 68.9856L29.9454 131.67C14.7763 122.912 2.47145 101.606 2.52028 84.1699C2.54506 75.5119 5.614 69.4126 10.5559 66.5405Z" fill="#2D2D2D"/>
<path d="M157.38 70.8887C121.424 91.7839 85.4706 112.678 49.5142 133.573C44.5089 136.482 37.5803 136.079 29.9447 131.671L137.811 68.9858C145.447 73.3936 152.375 73.7973 157.38 70.8887Z" fill="#353535"/>
<path d="M9.4577 64.6513L117.325 1.96654C122.613 -1.10677 129.931 -0.68117 137.995 3.97508L30.1291 66.6599C22.0651 62.0043 14.7458 61.5787 9.4577 64.6513Z" fill="#909090"/>
<path d="M158.482 72.7759C122.526 93.6718 86.5718 114.566 50.6154 135.461C55.8358 132.427 59.076 125.985 59.1029 116.838C59.1547 98.4228 46.1589 75.9148 30.1299 66.6599L137.996 3.9751C154.026 13.23 167.021 35.7387 166.969 54.1531C166.942 63.3002 163.702 69.7427 158.482 72.7759Z" fill="#9F9F9F"/>
<path d="M30.1291 66.6597C46.1581 75.9147 59.1539 98.4226 59.1022 116.838C59.0497 135.252 45.9686 142.705 29.9396 133.451C13.9142 124.199 0.918438 101.69 0.970182 83.2754C1.02338 64.8611 14.1037 57.4077 30.1291 66.6597ZM29.9447 131.671C45.1174 140.432 57.4988 133.377 57.5477 115.941C57.5965 98.5101 45.2967 77.201 30.124 68.4402C14.9542 59.6823 2.56915 66.7399 2.5196 84.1704C2.47077 101.606 14.7757 122.913 29.9447 131.671Z" fill="#3A3A3A"/>
<path d="M80.2416 97.1747C112.774 78.2692 145.303 59.365 177.835 40.4595C174.806 42.2202 172.926 45.9582 172.91 51.2653C172.88 61.9471 180.421 75.0093 189.718 80.3768L92.1245 137.091C82.8281 131.724 75.2866 118.662 75.3164 107.98C75.3325 102.673 77.2128 98.9355 80.2416 97.1747Z" fill="#2D2D2D"/>
<path d="M201.711 81.5416C169.179 100.447 136.649 119.352 104.117 138.256C101.049 140.039 96.8033 139.793 92.1245 137.091L189.718 80.377C194.396 83.0786 198.642 83.3249 201.711 81.5416Z" fill="#353535"/>
<path d="M79.144 95.2859L176.737 38.5707C180.087 36.6241 184.723 36.8937 189.832 39.8439L92.2389 96.5584C87.1301 93.609 82.4943 93.3386 79.144 95.2859Z" fill="#909090"/>
<path d="M202.813 83.4301C170.281 102.336 137.752 121.24 105.22 140.145C108.527 138.223 110.58 134.144 110.596 128.348C110.63 116.68 102.393 102.419 92.2397 96.5578L189.833 39.8433C199.987 45.7049 208.223 59.9666 208.19 71.6339C208.173 77.4285 206.12 81.509 202.813 83.4301Z" fill="#9F9F9F"/>
<path d="M92.2389 96.5588C102.393 102.42 110.629 116.681 110.596 128.349C110.563 140.016 102.272 144.734 92.1187 138.872C81.9652 133.011 73.7335 118.753 73.7663 107.086C73.8005 95.4189 82.0861 90.6971 92.2389 96.5588ZM92.1245 137.092C101.422 142.459 109.012 138.134 109.043 127.452C109.073 116.768 101.531 103.707 92.2345 98.3392C82.9381 92.9716 75.3477 97.297 75.3171 107.98C75.2865 118.663 82.828 131.724 92.1245 137.092Z" fill="#3A3A3A"/>
</svg>
