<svg width="184" height="28" viewBox="0 0 184 28" fill="none" xmlns="http://www.w3.org/2000/svg">
<path d="M16.6192 2.0883C18.2941 2.83272 19.5782 3.89974 20.4715 5.28932C21.3648 6.6789 21.8115 8.32902 21.8115 10.2397C21.8115 12.1256 21.3648 13.7695 20.4715 15.1715C19.5782 16.5735 18.2941 17.6467 16.6192 18.3911C14.9442 19.1367 12.9777 19.5065 10.7196 19.5065H4.83873V27.0263H0V0.97168H10.7196C12.9777 0.97168 14.9455 1.34388 16.6192 2.0883ZM15.2978 14.0734C16.3896 13.1801 16.9355 11.9022 16.9355 10.2397C16.9355 8.57716 16.3896 7.29924 15.2978 6.40594C14.206 5.51264 12.6055 5.06597 10.4963 5.06597H4.83873V15.4134H10.4963C12.6055 15.4134 14.206 14.9667 15.2978 14.0734Z" fill="#FFFF00"/>
<path d="M34.8942 25.0528C32.9131 23.9844 31.3581 22.5035 30.2293 20.6079C29.1005 18.7123 28.5361 16.5916 28.5361 14.2479C28.5361 11.9043 29.1005 9.78463 30.2293 7.88903C31.3569 5.99343 32.9131 4.51255 34.8942 3.44412C36.8754 2.37454 39.0985 1.84033 41.5634 1.84033C44.0283 1.84033 46.2514 2.37454 48.2326 3.44412C50.2137 4.51255 51.7687 5.98882 52.8975 7.87178C54.0252 9.75589 54.5907 11.8813 54.5907 14.2479C54.5907 16.6157 54.0263 18.741 52.8975 20.6228C51.7687 22.5081 50.2126 23.9844 48.2326 25.0517C46.2514 26.1201 44.0283 26.6543 41.5634 26.6543C39.0985 26.6543 36.8754 26.1201 34.8942 25.0528Z" fill="#A637A3"/>
<path d="M34.6155 25.6666C32.4815 24.5128 30.8066 22.9135 29.5907 20.8664C28.3748 18.8192 27.7668 16.5302 27.7668 13.9991C27.7668 11.4681 28.3748 9.17902 29.5907 7.13186C30.8053 5.08471 32.4815 3.48422 34.6155 2.33037C36.7495 1.17652 39.1441 0.599609 41.7992 0.599609C44.4542 0.599609 46.8488 1.17652 48.9828 2.33037C51.1168 3.48422 52.7917 5.07853 54.0076 7.11327C55.2223 9.14802 55.8314 11.4433 55.8314 13.9991C55.8314 16.5562 55.2235 18.8502 54.0076 20.885C52.7917 22.9197 51.1155 24.514 48.9828 25.6666C46.8488 26.8217 44.4542 27.3987 41.7992 27.3987C39.1441 27.3987 36.7495 26.8217 34.6155 25.6666ZM46.4902 21.9843C47.8798 21.2014 48.9716 20.1108 49.7657 18.7076C50.5597 17.3068 50.9567 15.7361 50.9567 13.9991C50.9567 12.2622 50.5597 10.6927 49.7657 9.29067C48.9716 7.88868 47.8798 6.79688 46.4902 6.01524C45.0994 5.2336 43.5373 4.84277 41.8004 4.84277C40.0634 4.84277 38.5001 5.2336 37.1105 6.01524C35.7197 6.79688 34.6292 7.88868 33.8351 9.29067C33.0411 10.6927 32.644 12.2622 32.644 13.9991C32.644 15.7361 33.0411 17.3068 33.8351 18.7076C34.6292 20.1108 35.721 21.2014 37.1105 21.9843C38.5001 22.7647 40.0634 23.1555 41.8004 23.1555C43.5373 23.1555 45.0994 22.7634 46.4902 21.9843Z" fill="#FFFF00"/>
<path d="M63.5734 0.97168H68.4121V22.932H82.035V27.0263H63.5734V0.97168Z" fill="#FFFF00"/>
<path d="M88.4742 0.97168H93.3129V27.0263H88.4742V0.97168Z" fill="#FFFF00"/>
<path d="M105.745 24.3651C103.735 22.3415 102.73 19.4457 102.73 15.674V0.97168H107.567V15.4879C107.567 20.5995 109.776 23.1554 114.193 23.1554C118.586 23.1554 120.782 20.5995 120.782 15.4879V0.97168H125.546V15.674C125.546 19.4469 124.547 22.3427 122.551 24.3651C120.552 26.3874 117.755 27.3973 114.157 27.3973C110.559 27.3986 107.755 26.3874 105.745 24.3651Z" fill="#FFFF00"/>
<path d="M151.973 27.0263L146.65 19.3961C146.427 19.4221 146.092 19.4333 145.644 19.4333H139.765V27.0263H134.926V0.97168H145.646C147.904 0.97168 149.871 1.34388 151.546 2.0883C153.221 2.83272 154.505 3.89974 155.397 5.28932C156.291 6.6789 156.737 8.32902 156.737 10.2397C156.737 12.2 156.258 13.8873 155.304 15.3017C154.35 16.7161 152.978 17.772 151.193 18.4655L157.185 27.0263H151.973ZM150.222 6.40594C149.131 5.51264 147.529 5.06597 145.421 5.06597H139.763V15.4506H145.421C147.529 15.4506 149.131 14.9978 150.222 14.0921C151.314 13.1864 151.86 11.9022 151.86 10.2397C151.86 8.57716 151.314 7.29924 150.222 6.40594Z" fill="#FFFF00"/>
<path d="M166.99 26.5411C165.116 25.9716 163.634 25.216 162.541 24.2706L164.217 20.5126C165.284 21.3562 166.593 22.0448 168.144 22.5783C169.695 23.1131 171.252 23.3798 172.817 23.3798C174.752 23.3798 176.198 23.0696 177.152 22.4493C178.106 21.8289 178.585 21.0101 178.585 19.9927C178.585 19.2483 178.317 18.6329 177.783 18.1515C177.25 17.6664 176.574 17.2892 175.755 17.015C174.936 16.7421 173.819 16.4331 172.406 16.0845C170.42 15.6143 168.813 15.1416 167.586 14.6701C166.358 14.1986 165.302 13.4604 164.421 12.4555C163.54 11.4505 163.101 10.0919 163.101 8.37979C163.101 6.94058 163.49 5.63163 164.272 4.45297C165.054 3.2743 166.232 2.33756 167.809 1.64277C169.385 0.947977 171.313 0.600586 173.596 0.600586C175.184 0.600586 176.747 0.799111 178.287 1.19613C179.824 1.59316 181.152 2.16388 182.268 2.9083L180.744 6.66762C179.601 5.99764 178.411 5.48894 177.17 5.14154C175.93 4.79415 174.725 4.62047 173.56 4.62047C171.648 4.62047 170.227 4.94305 169.297 5.58822C168.366 6.23338 167.901 7.08943 167.901 8.15643C167.901 8.90085 168.168 9.50879 168.703 9.98026C169.236 10.4517 169.914 10.824 170.731 11.0969C171.55 11.3699 172.667 11.68 174.081 12.0274C176.018 12.4741 177.605 12.9394 178.845 13.4232C180.086 13.9071 181.147 14.6453 182.026 15.6379C182.909 16.6304 183.348 17.9704 183.348 19.659C183.348 21.0982 182.957 22.3997 182.177 23.5659C181.394 24.7322 180.209 25.6627 178.622 26.3575C177.034 27.0523 175.098 27.3997 172.816 27.3997C170.804 27.3984 168.864 27.1131 166.99 26.5411Z" fill="#FFFF00"/>
</svg>
