<svg width="1280" height="42" viewBox="0 0 1280 42" fill="none" xmlns="http://www.w3.org/2000/svg">
<path d="M0 1C80.2286 1 79.7714 41 160 41" stroke="#DCDCDC"/>
<path d="M320 1C239.771 1 240.229 41 160 41" stroke="#DCDCDC"/>
<path d="M320 1C400.229 1 399.771 41 480 41" stroke="#DCDCDC"/>
<path d="M640 1C559.771 1 560.229 41 480 41" stroke="#DCDCDC"/>
<path d="M640 1C720.229 1 719.771 41 800 41" stroke="#DCDCDC"/>
<path d="M960 1C879.771 1 880.229 41 800 41" stroke="#DCDCDC"/>
<path d="M960 1C1040.23 1 1039.77 41 1120 41" stroke="#DCDCDC"/>
<path d="M1280 1C1199.77 1 1200.23 41 1120 41" stroke="#DCDCDC"/>
</svg>
