<svg width="83" height="60" viewBox="0 0 83 60" fill="none" xmlns="http://www.w3.org/2000/svg">
<path d="M75.7968 29.7429L72.8631 19.5997C72.3563 17.8565 70.7352 16.6357 68.9185 16.6357H55.6101V29.7433H75.7968V29.7429Z" stroke="#A637A3" stroke-width="2" stroke-miterlimit="10"/>
<path d="M74.1299 49.7964C74.1299 54.3961 70.4008 58.1247 65.8011 58.1247C61.2013 58.1247 57.4767 54.3961 57.4767 49.7964C57.4767 45.1971 61.2031 41.468 65.8011 41.468C70.4026 41.468 74.1299 45.1971 74.1299 49.7964Z" stroke="#A637A3" stroke-width="2" stroke-miterlimit="10"/>
<path d="M69.1497 49.7966C69.1497 51.6444 67.6511 53.1413 65.805 53.1413C63.9572 53.1413 62.4563 51.6449 62.4563 49.7966C62.4563 47.9483 63.955 46.4519 65.805 46.4519C67.6511 46.4506 69.1497 47.9483 69.1497 49.7966Z" stroke="#A637A3" stroke-width="2" stroke-miterlimit="10"/>
<path d="M29.2288 49.7964C29.2288 54.3961 25.498 58.1247 20.9009 58.1247C16.3011 58.1247 12.5725 54.3961 12.5725 49.7964C12.5725 45.1971 16.3011 41.468 20.9009 41.468C25.498 41.468 29.2288 45.1971 29.2288 49.7964Z" stroke="#A637A3" stroke-width="2" stroke-miterlimit="10"/>
<path d="M24.2452 49.7966C24.2452 51.6444 22.7492 53.1413 20.9009 53.1413C19.0527 53.1413 17.5544 51.6449 17.5544 49.7966C17.5544 47.9483 19.0527 46.4519 20.9009 46.4519C22.7483 46.4519 24.2452 47.9483 24.2452 49.7966Z" stroke="#A637A3" stroke-width="2" stroke-miterlimit="10"/>
<path d="M1.76844 43.9399H10.4785C12.5116 40.2892 16.4237 37.8201 20.9085 37.8201C25.3755 37.8201 29.2872 40.2892 31.3381 43.9399H51.6878V7.08979C51.6878 4.20871 49.3514 1.875 46.4726 1.875H6.9761C4.09547 1.875 1.76131 4.20916 1.76131 7.08979V43.9416H1.76844V43.9399V43.9399Z" stroke="#A637A3" stroke-width="2" stroke-miterlimit="10"/>
<path d="M76.231 43.9398C74.1805 40.2892 70.2858 37.8201 65.8014 37.8201C61.3166 37.8201 57.4245 40.2892 55.3905 43.9398H31.3376C29.2867 40.2892 25.375 37.8201 20.908 37.8201C16.4232 37.8201 12.5111 40.2892 10.478 43.9398H1.76793V49.8325H12.5712C12.5712 45.2332 16.2998 41.5037 20.9 41.5037C25.4975 41.5037 29.2279 45.2332 29.2279 49.8325H57.3795C57.3795 49.8085 57.3764 49.7848 57.3764 49.7603C57.3764 45.161 61.1032 41.4324 65.7007 41.4324C70.3023 41.4324 74.0295 45.161 74.0295 49.7603C74.0295 49.7848 74.026 49.8085 74.026 49.8325H81.2387V43.9398H76.231Z" stroke="#A637A3" stroke-width="2" stroke-miterlimit="10"/>
<path d="M65.8015 37.9376C70.2391 37.9376 74.0951 40.3564 76.163 43.9434H79.9192V29.8867L76.6261 18.5076C75.6334 15.0756 72.4905 12.7134 68.9182 12.7134H51.6878V43.9429H55.4596C57.5097 40.3559 61.3643 37.9376 65.8015 37.9376Z" stroke="#A637A3" stroke-width="2" stroke-miterlimit="10"/>
</svg>
