<svg width="83" height="82" viewBox="0 0 83 82" fill="none" xmlns="http://www.w3.org/2000/svg">
<path d="M81.101 2.37728C80.8223 1.7015 80.1627 1.26123 79.4324 1.26123C9.33059 1.26123 1.7619 30.313 1.7619 42.8061C1.7619 47.2994 2.75964 51.4973 4.72812 55.2803C5.03117 55.8653 5.63132 56.237 6.28874 56.2516C6.90997 56.2337 7.56307 55.9231 7.89259 55.3484C12.6258 47.1693 26.0275 26.9821 48.1626 16.2571C49.0685 15.8233 50.1532 16.1955 50.5827 17.0884C51.0164 17.9884 50.6399 19.071 49.7437 19.5047C48.0751 20.3139 46.4707 21.1955 44.8998 22.109C44.3002 22.4596 43.7178 22.8323 43.1296 23.1975C42.2437 23.7469 41.3702 24.306 40.5183 24.884C39.6696 25.455 38.8307 26.0406 38.0069 26.6396C37.7503 26.8271 37.5056 27.0189 37.2528 27.2112C15.2225 43.6266 1.76244 69.8137 1.76244 78.9322C1.76244 79.9294 2.5722 80.7387 3.5694 80.7387C4.56606 80.7387 5.37581 79.9294 5.37581 78.9322C5.37581 76.02 7.35941 70.1179 11.1116 63.0759C16.5595 67.5309 23.8894 69.9007 32.4699 69.9007C55.6659 69.9007 60.5255 47.8283 63.1336 35.9678C66.6449 20.0071 74.3724 10.6828 80.7083 4.34306C81.2269 3.82609 81.3792 3.05307 81.101 2.37728Z" stroke="#A637A3" stroke-width="2" stroke-miterlimit="10"/>
</svg>
