<svg width="79" height="78" viewBox="0 0 79 78" fill="none" xmlns="http://www.w3.org/2000/svg">
<path d="M47.265 14.4143L52.4432 13.1196L56.3275 14.4143L62.8004 15.7086L66.6843 13.1196C68.8524 15.3894 70.7232 17.925 72.2511 20.6675L71.8633 20.8877L64.0952 23.4763L56.3284 22.182L53.7388 18.2982H45.9716L42.0873 22.182L43.382 31.2441L52.4441 35.1283L57.6227 33.8332L61.507 36.4227V41.6008L64.0956 46.7795L66.6851 51.9581V57.1367L70.1804 60.6323C58.225 77.5732 34.7991 81.6139 17.8591 69.6582C3.47152 59.5035 -1.92555 40.7145 4.88046 24.4738L7.13347 31.2445L11.0178 33.8336L14.9012 36.4231L12.3117 39.0126V42.8965L14.9012 48.0755L21.3741 49.3694V62.3162L23.9636 68.7887L27.8471 70.0834V63.6105L33.0257 59.7266V55.8424L38.2043 50.6638L39.499 44.1908H34.3204L30.4366 37.7179H21.3745L18.785 32.5397L14.9012 36.4235V31.2449L12.3117 28.6558V24.772L21.3741 23.4768L27.8466 19.5929L31.7309 13.1204L35.6148 11.8257L36.9091 7.94181L29.1418 6.64661L25.4656 4.18722C35.4209 0.177557 46.6166 0.620913 56.2254 5.40442L51.1506 7.94181H45.9716L43.3829 13.1204L47.265 14.4143Z" stroke="#A637A3" stroke-width="2" stroke-miterlimit="10"/>
<path d="M66.6839 13.1196L62.7996 15.7087L56.3271 14.4143L52.4428 13.1196L47.2638 14.4143L43.3799 13.1196L45.9694 7.94137H51.1485L56.2228 5.40356C60.1373 7.33946 63.6777 9.95181 66.6839 13.1196Z" stroke="#A637A3" stroke-width="2" stroke-miterlimit="10"/>
<path d="M36.9074 7.94184L35.6127 11.8253L31.7288 13.12L27.845 19.5925L21.3724 23.4773L12.31 24.7716V28.6554L14.8995 31.245V36.4231L11.0161 33.8336L7.1318 31.245L4.87878 24.4738C8.75617 15.2343 16.168 7.93021 25.4627 4.18726L29.1393 6.64751L36.9074 7.94184Z" stroke="#A637A3" stroke-width="2" stroke-miterlimit="10"/>
<path d="M39.497 44.1899L38.2022 50.6629L33.024 55.8419V59.7253L27.8454 63.6092V70.0821L23.9624 68.7874L21.3729 62.3149V49.3681L14.8995 48.0742L12.3104 42.8956V39.0118L14.8995 36.4222L18.7834 32.5388L21.3729 37.7174H30.4349L34.3188 44.1899H39.497Z" stroke="#A637A3" stroke-width="2" stroke-miterlimit="10"/>
<path d="M72.2504 20.6676C79.3179 33.2752 78.5122 48.8223 70.1792 60.6311L66.684 57.1363V51.9577L64.0944 46.7787L61.5054 41.6005V36.4219L57.6215 33.8323L52.4425 35.1275L43.3809 31.2432L42.0861 22.1812L45.9695 18.2974H53.7376L56.3267 22.1812L64.094 23.4755L71.8617 20.8869L72.2504 20.6676Z" stroke="#A637A3" stroke-width="2" stroke-miterlimit="10"/>
</svg>
