<svg width="77" height="83" viewBox="0 0 77 83" fill="none" xmlns="http://www.w3.org/2000/svg">
<path d="M38.4294 64.3741C55.8575 64.3741 69.9858 50.2458 69.9858 32.8177C69.9858 15.3895 55.8575 1.26123 38.4294 1.26123C21.0012 1.26123 6.87292 15.3895 6.87292 32.8177C6.87292 50.2458 21.0012 64.3741 38.4294 64.3741Z" stroke="#A637A3" stroke-width="2" stroke-miterlimit="10"/>
<path d="M12.8656 51.2793L2.00732 70.1L14.6801 69.4271L20.4378 80.7386L30.4814 63.3253C23.2846 61.4637 17.1049 57.1302 12.8656 51.2793Z" stroke="#A637A3" stroke-width="2" stroke-miterlimit="10"/>
<path d="M64.0565 51.1851C59.8484 57.0518 53.6683 61.4012 46.4869 63.2945L56.5627 80.7386L62.3204 69.4271L74.9927 70.1L64.0565 51.1851Z" stroke="#A637A3" stroke-width="2" stroke-miterlimit="10"/>
<path d="M38.4293 55.6902C51.0618 55.6902 61.3023 45.4496 61.3023 32.8171C61.3023 20.1847 51.0618 9.94409 38.4293 9.94409C25.7969 9.94409 15.5563 20.1847 15.5563 32.8171C15.5563 45.4496 25.7969 55.6902 38.4293 55.6902Z" stroke="#A637A3" stroke-width="2" stroke-miterlimit="10"/>
<path d="M54.1062 30.3451C54.8103 29.6569 54.4186 28.4523 53.4487 28.312L44.4221 26.9974C44.0308 26.9349 43.7021 26.7004 43.53 26.3404L39.494 18.1588C39.0557 17.2667 37.7887 17.2667 37.3503 18.1588L33.3297 26.3404C33.1576 26.685 32.8135 26.9349 32.4381 26.9974L23.4111 28.312C22.4411 28.4528 22.0499 29.6573 22.754 30.3451L29.2784 36.7132C29.5595 36.9949 29.685 37.3852 29.6225 37.7615L28.0892 46.7419C27.9176 47.7124 28.9501 48.4627 29.8258 47.9935L37.8988 43.7533C38.2429 43.5653 38.6654 43.5653 39.01 43.7533L47.0825 47.9935C47.9587 48.4468 48.9757 47.7119 48.8195 46.7419L47.2704 37.7615C47.2075 37.3708 47.3329 36.979 47.6146 36.7132L54.1062 30.3451Z" stroke="#A637A3" stroke-width="2" stroke-miterlimit="10"/>
</svg>
